# xmcd
#
# Track frame offsets:
#	150
#	15225
#	31275
#	48225
#	72600
#	90375
#	109950
#	125400
#	141675
#	156450
#	170325
#	187725
#	205575
#	224400
#	245850
#	260325
#	274650
#	291750
#	309600
#
# Disc length: 4363
#
# Revision: 2
# Processed by: cddbd v1.5.2PL0 Copyright (c) Steve Scherf et al.
# Submitted via: kJams Pro 1.0b81
#
DISCID=1c110913
DTITLE=Various Artist - Supercore – Country Blockbusters #SPC–22
DYEAR=2006
DGENRE=Karaoke
TTITLE0=Gretchen Wilson - Here For The Party
TTITLE1=Gretchen Wilson - Redneck Woman
TTITLE2=Alan Jackson§Jimmy Buffett - It's Five O Clock Somewhere
TTITLE3=Toby Keith - I Love This Bar
TTITLE4=Brad Paisley§Alison Krauss - Whiskey Lullaby
TTITLE5=Dixie Chicks - Goodbye Earl
TTITLE6=Willie Nelson§Toby Keith - Beer For My Horses
TTITLE7=Kenny Chesney§Uncle Kracker - When The Sun Goes Down
TTITLE8=Big and Rich - Save A Horse
TTITLE9=Tracy Byrd - The Truth About Men
TTITLE10=Kenny Chesney - I Go Back
TTITLE11=Lonestar - Amazed
TTITLE12=Lonestar - I'm Already There
TTITLE13=Shania Twain - Forever and For Always
TTITLE14=Jo Dee Messina - Bring On The Rain
TTITLE15=Martina McBride - In My Daughters Eyes
TTITLE16=Garth Brooks - Two Pina Coladas
TTITLE17=Darryl Worley - Have You Forgotten
TTITLE18=Toby Keith - American Soldier
EXTD=
EXTT0=
EXTT1=
EXTT2=
EXTT3=
EXTT4=
EXTT5=
EXTT6=
EXTT7=
EXTT8=
EXTT9=
EXTT10=
EXTT11=
EXTT12=
EXTT13=
EXTT14=
EXTT15=
EXTT16=
EXTT17=
EXTT18=
PLAYORDER=
